<svg id="Layer_1" style="enable-background:new 0 0 159.1 55.8;" version="1.1" viewBox="0 0 159.1 55.8" x="0px" xml:space="preserve" xmlns="http://www.w3.org/2000/svg" xmlns:xlink="http://www.w3.org/1999/xlink" y="0px">
<style type="text/css">
	.st0{fill:#1D1D1B;}
	.st1{clip-path:url(#SVGID_2_);}
	.st2{fill:url(#SVGID_3_);}
	.st3{clip-path:url(#SVGID_5_);}
	.st4{fill:url(#SVGID_6_);}
</style>
<g>
<polygon class="st0" points="7.8,40.8 7.8,5.5 0,5.5 0,0 21.6,0 21.6,5.5 13.8,5.5 13.8,40.8 	"></polygon>
<g>
<defs>
<path d="M139,33.2c0-3.8,2.9-7.5,7.2-7.5c4.1,0,7.4,3.3,7.4,7.4s-3.3,7.4-7.4,7.4C142.2,40.4,139,37.2,139,33.2
				 M140.9,14.3c-0.1-3,2.3-5.5,5.3-5.6c0,0,0,0,0,0c2.9,0,5.3,2.5,5.3,5.4c0,2.9-1.8,5.8-5.3,5.8C143.2,19.8,140.8,17.3,140.9,14.3
				 M135.1,14.7c-0.1,3,1.2,5.9,3.5,7.8c-2.2,1.5-3.9,3.7-4.7,6.3v-6.4c0.1-2.6-0.5-5.1-1.7-7.4c-2-3.4-5.6-5.5-10.8-5.5
				c-6.8,0-9.1,3.6-10.1,5.1c-1.5-3.4-5.8-5.1-9.5-5.1c-5.7,0-7.7,2.9-8.8,4.1H93v-3.3h-2l-3.3,4.6v22.8l2.6,3.2h3.2v-17
				c0-2.3,0-9.1,7.5-9.1c2.3-0.1,4.4,1,5.7,2.9c1.2,2,1.3,3.8,1.3,6.3v17h5.7v-17c0.1-2.5,0-9.1,7.3-9.1c6.9,0,7.2,6.5,7.2,9.1v16.9
				h5.7v-3.9c2.2,6.8,9.5,10.5,16.3,8.3c5.4-1.8,9-6.8,8.9-12.4c0.1-4.1-2-8-5.5-10.3c2.4-1.9,3.8-4.8,3.6-7.9c0-6.1-5-11-11.1-11
				C140.1,3.6,135.2,8.6,135.1,14.7" id="SVGID_1_"></path>
</defs>
<clipPath id="SVGID_2_">
<use style="overflow:visible;" href="#SVGID_1_"></use>
</clipPath>
<g class="st1">
<linearGradient gradientTransform="matrix(71.35 0 0 71.35 4029.8203 46433.2344)" gradientUnits="userSpaceOnUse" id="SVGID_3_" x1="-55.253" x2="-54.253" y1="-650.4367" y2="-650.4367">
<stop offset="0" style="stop-color:#50BCBA"></stop>
<stop offset="1" style="stop-color:#0082B3"></stop>
</linearGradient>
<rect class="st2" height="42.3" width="71.4" x="87.7" y="3.4"></rect>
</g>
</g>
<g>
<defs>
<path d="M139,33.2c0-3.8,2.9-7.5,7.2-7.5c4.1,0,7.4,3.3,7.4,7.4s-3.3,7.4-7.4,7.4C142.2,40.4,139,37.2,139,33.2
				 M140.9,14.3c-0.1-3,2.3-5.5,5.3-5.6c0,0,0,0,0,0c2.9,0,5.3,2.5,5.3,5.4c0,2.9-1.8,5.8-5.3,5.8C143.2,19.8,140.8,17.3,140.9,14.3
				 M135.1,14.7c-0.1,3,1.2,5.9,3.5,7.8c-2.2,1.5-3.9,3.7-4.7,6.3v-6.4c0.1-2.6-0.5-5.1-1.7-7.4c-2-3.4-5.6-5.5-10.8-5.5
				c-6.8,0-9.1,3.6-10.1,5.1c-1.5-3.4-5.8-5.1-9.5-5.1c-5.7,0-7.7,2.9-8.8,4.1H93v-3.3h-2l-3.3,4.6v22.8l2.6,3.2h3.2v-17
				c0-2.3,0-9.1,7.5-9.1c2.3-0.1,4.4,1,5.7,2.9c1.2,2,1.3,3.8,1.3,6.3v17h5.7v-17c0.1-2.5,0-9.1,7.3-9.1c6.9,0,7.2,6.5,7.2,9.1v16.9
				h5.7v-3.9c2.2,6.8,9.5,10.5,16.3,8.3c5.4-1.8,9-6.8,8.9-12.4c0.1-4.1-2-8-5.5-10.3c2.4-1.9,3.8-4.8,3.6-7.9c0-6.1-5-11-11.1-11
				C140.1,3.6,135.2,8.6,135.1,14.7" id="SVGID_4_"></path>
</defs>
<clipPath id="SVGID_5_">
<use style="overflow:visible;" href="#SVGID_4_"></use>
</clipPath>
<g class="st3">
<linearGradient gradientTransform="matrix(60.8491 -27.7305 27.7305 60.8491 21311.0625 37978.0312)" gradientUnits="userSpaceOnUse" id="SVGID_6_" x1="-53.4847" x2="-52.4847" y1="-647.8622" y2="-647.8622">
<stop offset="0" style="stop-color:#50BCBA"></stop>
<stop offset="1" style="stop-color:#0082B3"></stop>
</linearGradient>
<polygon class="st4" points="71.8,10.7 146.8,-23.5 175,38.5 100,72.7 			"></polygon>
</g>
</g>
<path class="st0" d="M8.8,47.4v5.5h1c0.6,0,1.2-0.2,1.7-0.7c0.4-0.5,0.6-1.2,0.6-1.9v-0.4c0-0.7-0.2-1.3-0.6-1.9
		c-0.4-0.5-1-0.7-1.6-0.7L8.8,47.4z M7.9,53.7v-7h2c0.6,0,1.1,0.1,1.6,0.4c0.5,0.3,0.8,0.7,1.1,1.1c0.3,0.5,0.4,1.1,0.4,1.7v0.5
		c0,0.6-0.1,1.2-0.4,1.7c-0.2,0.5-0.6,0.9-1.1,1.1c-0.5,0.3-1.1,0.4-1.6,0.4L7.9,53.7z"></path>
<path class="st0" d="M16,53c0.3,0,0.6-0.1,0.8-0.2c0.2-0.1,0.4-0.3,0.6-0.6v-1.1h-0.7c-1.1,0-1.6,0.3-1.6,1c0,0.2,0.1,0.5,0.3,0.6
		C15.4,53,15.7,53,16,53 M17.4,53.7c-0.1-0.2-0.1-0.4-0.1-0.5c-0.4,0.4-0.9,0.7-1.5,0.6c-0.5,0-0.9-0.1-1.3-0.4
		c-0.3-0.3-0.5-0.7-0.5-1.1c0-0.5,0.2-1,0.6-1.3c0.5-0.3,1.1-0.5,1.8-0.5h0.9v-0.4c0-0.3-0.1-0.5-0.3-0.7c-0.2-0.2-0.5-0.3-0.8-0.3
		c-0.3,0-0.6,0.1-0.8,0.2c-0.2,0.1-0.3,0.4-0.3,0.6h-0.9c0-0.3,0.1-0.5,0.3-0.8c0.2-0.3,0.5-0.5,0.8-0.6c0.3-0.1,0.7-0.2,1-0.2
		c0.5,0,1,0.1,1.4,0.5c0.3,0.3,0.5,0.8,0.5,1.2v2.4c0,0.4,0,0.8,0.2,1.1v0.1L17.4,53.7z"></path>
<path class="st0" d="M20.8,47.2v1.3h1v0.7h-1v3.2c0,0.2,0,0.3,0.1,0.5C21,53,21.2,53,21.4,53c0.1,0,0.3,0,0.4-0.1v0.7
		c-0.2,0.1-0.5,0.1-0.7,0.1c-0.3,0-0.7-0.1-0.9-0.4c-0.2-0.3-0.3-0.6-0.3-1v-3.2h-1v-0.7h1v-1.3L20.8,47.2z"></path>
<path class="st0" d="M24.6,53c0.3,0,0.6-0.1,0.8-0.2c0.2-0.1,0.4-0.3,0.6-0.6v-1.1h-0.7c-1.1,0-1.6,0.3-1.6,1
		c0,0.2,0.1,0.5,0.3,0.6C24,52.9,24.3,53,24.6,53 M26,53.7c-0.1-0.2-0.1-0.4-0.1-0.5c-0.4,0.4-0.9,0.7-1.5,0.6
		c-0.5,0-0.9-0.1-1.3-0.4c-0.3-0.3-0.5-0.7-0.5-1.1c0-0.5,0.2-1,0.6-1.3c0.5-0.3,1.1-0.5,1.7-0.5h0.9v-0.4c0-0.3-0.1-0.5-0.3-0.7
		c-0.2-0.2-0.5-0.3-0.8-0.3c-0.3,0-0.6,0.1-0.8,0.2c-0.2,0.1-0.3,0.4-0.3,0.6h-0.9c0-0.3,0.1-0.5,0.3-0.8c0.2-0.2,0.5-0.4,0.8-0.6
		c0.3-0.1,0.7-0.2,1.1-0.2c0.5,0,1,0.1,1.4,0.5c0.3,0.3,0.5,0.8,0.5,1.2v2.4c0,0.4,0,0.8,0.2,1.1v0.1L26,53.7z"></path>
<path class="st0" d="M31.3,51.1c0,0.5,0.1,1,0.4,1.4c0.2,0.3,0.6,0.5,1,0.5c0.5,0,1-0.3,1.2-0.8v-2.4c-0.2-0.5-0.7-0.8-1.2-0.7
		c-0.4,0-0.8,0.2-1,0.5C31.4,50.1,31.3,50.6,31.3,51.1 M30.4,51c0-0.7,0.2-1.4,0.6-1.9c0.7-0.8,1.9-1,2.7-0.3
		c0.1,0.1,0.2,0.1,0.2,0.2v-2.7h0.9v7.4H34L34,53.1c-0.7,0.8-1.9,0.9-2.7,0.2C31.1,53.2,31,53.1,31,53C30.6,52.4,30.4,51.8,30.4,51
		L30.4,51z"></path>
<path class="st0" d="M38.7,49.2c-0.1,0-0.3,0-0.4,0c-0.5,0-1,0.3-1.2,0.8v3.7h-0.9v-5.2h0.9v0.6c0.3-0.4,0.7-0.7,1.2-0.7
		c0.1,0,0.3,0,0.4,0.1L38.7,49.2z"></path>
<path class="st0" d="M40.5,53.7h-0.9v-5.2h0.9V53.7z M39.5,47.1c0-0.1,0-0.3,0.1-0.4c0.1-0.1,0.3-0.2,0.4-0.1c0.1,0,0.3,0,0.4,0.1
		c0.1,0.1,0.1,0.2,0.1,0.4c0,0.1,0,0.3-0.1,0.4c-0.1,0.1-0.2,0.2-0.4,0.1c-0.1,0-0.3,0-0.4-0.1C39.6,47.3,39.5,47.2,39.5,47.1"></path>
<polygon class="st0" points="43.7,52.4 45,48.4 45.9,48.4 44,53.7 43.3,53.7 41.4,48.4 42.3,48.4 	"></polygon>
<path class="st0" d="M48.8,49.1c-0.3,0-0.7,0.1-0.9,0.4c-0.3,0.3-0.4,0.7-0.5,1.1h2.6v-0.1c0-0.4-0.1-0.7-0.4-1
		C49.5,49.2,49.1,49.1,48.8,49.1 M48.9,53.8c-0.6,0-1.3-0.2-1.7-0.7c-0.5-0.5-0.7-1.2-0.7-1.9v-0.2c0-0.5,0.1-1,0.3-1.4
		c0.2-0.4,0.5-0.8,0.8-1c0.3-0.2,0.7-0.3,1.1-0.4c0.6,0,1.2,0.2,1.6,0.7c0.4,0.6,0.6,1.2,0.6,1.9v0.4h-3.5c0,0.5,0.2,0.9,0.5,1.2
		c0.3,0.3,0.7,0.5,1.1,0.5c0.3,0,0.6-0.1,0.8-0.2c0.2-0.1,0.4-0.3,0.6-0.5l0.5,0.4C50.4,53.4,49.7,53.8,48.9,53.8"></path>
<path class="st0" d="M52.8,48.4v0.6c0.4-0.5,0.9-0.8,1.6-0.8c1.1,0,1.7,0.6,1.7,1.9v3.5h-0.9v-3.5c0-0.3-0.1-0.6-0.3-0.8
		c-0.2-0.2-0.5-0.3-0.8-0.3c-0.3,0-0.5,0.1-0.8,0.2c-0.2,0.2-0.4,0.4-0.5,0.6v3.7h-0.9v-5.2L52.8,48.4z"></path>
<path class="st0" d="M60.8,53.7h-0.9v-5.2h0.9V53.7z M59.8,47.1c0-0.1,0-0.3,0.1-0.4c0.1-0.1,0.2-0.2,0.4-0.1c0.1,0,0.3,0,0.4,0.1
		c0.1,0.1,0.1,0.2,0.1,0.4c0,0.1,0,0.3-0.1,0.4c-0.1,0.1-0.3,0.2-0.4,0.1c-0.1,0-0.3,0-0.4-0.1C59.9,47.3,59.8,47.2,59.8,47.1"></path>
<path class="st0" d="M63.1,48.4v0.6c0.4-0.5,1-0.8,1.6-0.8c1.1,0,1.7,0.6,1.7,1.9v3.5h-0.9v-3.5c0-0.3-0.1-0.6-0.2-0.8
		c-0.2-0.2-0.5-0.3-0.8-0.3c-0.3,0-0.5,0.1-0.8,0.2c-0.2,0.2-0.4,0.4-0.5,0.6v3.7h-0.9v-5.2L63.1,48.4z"></path>
<path class="st0" d="M70.8,52.3c0-0.2-0.1-0.4-0.3-0.6c-0.3-0.2-0.6-0.3-1-0.3c-0.4-0.1-0.7-0.2-1.1-0.4c-0.2-0.1-0.4-0.3-0.6-0.5
		c-0.1-0.2-0.2-0.4-0.2-0.7c0-0.4,0.2-0.8,0.5-1.1c0.4-0.3,0.9-0.5,1.4-0.4c0.5,0,1.1,0.1,1.5,0.5c0.4,0.3,0.6,0.7,0.5,1.2h-0.9
		c0-0.2-0.1-0.5-0.3-0.6c-0.2-0.2-0.5-0.3-0.8-0.3c-0.3,0-0.5,0.1-0.8,0.2c-0.2,0.1-0.3,0.3-0.3,0.5c0,0.2,0.1,0.4,0.2,0.5
		c0.3,0.2,0.6,0.3,0.9,0.3c0.4,0.1,0.7,0.2,1.1,0.4c0.2,0.1,0.5,0.3,0.6,0.5c0.1,0.2,0.2,0.5,0.2,0.7c0,0.4-0.2,0.9-0.6,1.1
		c-0.4,0.3-0.9,0.4-1.5,0.4c-0.4,0-0.8-0.1-1.1-0.2c-0.3-0.1-0.6-0.3-0.8-0.6c-0.2-0.3-0.3-0.6-0.3-0.9h0.9c0,0.3,0.1,0.5,0.4,0.7
		c0.3,0.2,0.6,0.3,0.9,0.3c0.3,0,0.6-0.1,0.8-0.2C70.7,52.7,70.8,52.5,70.8,52.3"></path>
<path class="st0" d="M92.4,52.3c0-0.2-0.1-0.4-0.3-0.6c-0.3-0.2-0.6-0.3-1-0.3c-0.4-0.1-0.7-0.2-1.1-0.4c-0.2-0.1-0.4-0.3-0.6-0.5
		c-0.1-0.2-0.2-0.4-0.2-0.7c0-0.4,0.2-0.8,0.5-1.1c0.8-0.6,2-0.6,2.8,0c0.4,0.3,0.6,0.7,0.5,1.2h-0.9c0-0.2-0.1-0.5-0.3-0.6
		c-0.2-0.2-0.5-0.3-0.8-0.3c-0.3,0-0.5,0.1-0.8,0.2c-0.2,0.1-0.3,0.3-0.3,0.5c0,0.2,0.1,0.4,0.3,0.5c0.3,0.1,0.6,0.3,0.9,0.3
		c0.4,0.1,0.7,0.2,1.1,0.4c0.2,0.1,0.5,0.3,0.6,0.5c0.1,0.2,0.2,0.5,0.2,0.7c0,0.4-0.2,0.9-0.6,1.1c-0.4,0.3-0.9,0.4-1.5,0.4
		c-0.4,0-0.8-0.1-1.1-0.2c-0.3-0.1-0.6-0.3-0.8-0.6c-0.2-0.2-0.3-0.6-0.3-0.9h0.9c0,0.3,0.1,0.5,0.4,0.7c0.3,0.2,0.6,0.3,0.9,0.3
		c0.3,0,0.6-0.1,0.8-0.2C92.3,52.7,92.4,52.5,92.4,52.3"></path>
<path class="st0" d="M73.8,53.7h-0.9v-5.2h0.9V53.7z M72.8,47.1c0-0.1,0-0.3,0.1-0.4c0.1-0.1,0.2-0.2,0.4-0.1c0.1,0,0.3,0,0.4,0.1
		c0.1,0.1,0.1,0.2,0.1,0.4c0,0.1,0,0.3-0.1,0.4c-0.1,0.1-0.3,0.2-0.4,0.1c-0.1,0-0.3,0-0.4-0.1C72.8,47.3,72.8,47.2,72.8,47.1"></path>
<path class="st0" d="M75.9,51.1c0,0.5,0.1,1,0.4,1.4c0.2,0.3,0.6,0.5,1,0.5c0.5,0,1-0.3,1.2-0.8v-2.4c-0.2-0.5-0.7-0.8-1.2-0.8
		c-0.4,0-0.8,0.2-1,0.5C76,50.1,75.9,50.6,75.9,51.1 M75,51c0-0.7,0.2-1.4,0.6-1.9c0.7-0.8,1.9-0.9,2.7-0.3c0.1,0.1,0.2,0.2,0.3,0.3
		v-0.6h0.8v5.1c0,0.6-0.2,1.2-0.6,1.6c-0.4,0.4-1,0.6-1.6,0.6c-0.4,0-0.8-0.1-1.1-0.2c-0.3-0.1-0.6-0.4-0.8-0.7l0.5-0.5
		c0.3,0.4,0.9,0.7,1.4,0.7c0.7,0.1,1.3-0.5,1.4-1.2c0-0.1,0-0.2,0-0.2v-0.5c-0.4,0.4-0.9,0.6-1.4,0.6c-0.6,0-1.1-0.3-1.5-0.7
		C75.2,52.5,75,51.8,75,51"></path>
<path class="st0" d="M81.7,49.1c0.4-0.5,0.9-0.7,1.5-0.7c1.1,0,1.7,0.6,1.7,1.9v3.5H84v-3.5c0-0.3-0.1-0.6-0.2-0.8
		c-0.2-0.2-0.5-0.3-0.8-0.3c-0.3,0-0.5,0.1-0.8,0.2c-0.2,0.2-0.4,0.4-0.5,0.6v3.7h-0.9v-7.4h0.9V49.1z"></path>
<path class="st0" d="M87.4,47.2v1.3h1v0.7h-1v3.2c0,0.2,0,0.3,0.1,0.5C87.7,53,87.8,53,88,53c0.1,0,0.3,0,0.4-0.1v0.7
		c-0.2,0.1-0.5,0.1-0.7,0.1c-0.3,0-0.7-0.1-0.9-0.4c-0.2-0.3-0.3-0.6-0.3-1v-3.2h-1v-0.7h1v-1.3L87.4,47.2z"></path>
<path class="st0" d="M17.5,40.8V10.2h5.3V13h0.1c2.4-3.4,6.3-3.5,7.8-3.6v5.9c-1.4,0.1-2.8,0.5-4.1,1.1c-1.8,1-3.4,3.3-3.4,7.6
		v16.7H17.5z"></path>
<polygon class="st0" points="65,0 65,40.8 70.7,40.8 70.7,25 70.7,0 	"></polygon>
<polygon class="st0" points="87.7,37.6 77.4,24.6 86.8,12.4 87.7,11.2 88.4,10.3 88.5,10.2 81.7,10.2 70.8,25 83.1,40.8 87.8,40.8 
		90.3,40.8 	"></polygon>
<path class="st0" d="M45.3,14.7c-7.1,0-10.5,6.1-10.5,10.9c-0.2,5.8,4.4,10.7,10.2,10.9s10.7-4.4,10.9-10.2c0-0.2,0-0.4,0-0.6
		C55.8,19.1,51.2,14.7,45.3,14.7 M55.7,40.8v-4.7h-0.1c-2.2,3.6-6.2,5.7-10.4,5.5c-8.7,0.3-15.9-6.5-16.2-15.1c0-0.3,0-0.5,0-0.8
		c0-7.4,5.2-16.2,16.2-16.2c4.1-0.2,8,1.8,10.4,5.1h0.1v-4.3h5.7v30.6H55.7z"></path>
</g>
</svg>